HIERARCHY
ROOT Hips
{
  OFFSET 54.8585 84.17 6.6064
  CHANNELS 6 Xposition Yposition Zposition Zrotation Xrotation Yrotation
  JOINT spine
  {
    OFFSET 0 5.95438 0.342407
    CHANNELS 3 Zrotation Xrotation Yrotation
    JOINT spine1
    {
      OFFSET 0 8.85602 0
      CHANNELS 3 Zrotation Xrotation Yrotation
      JOINT spine2
      {
        OFFSET 0 8.48567 0
        CHANNELS 3 Zrotation Xrotation Yrotation
        JOINT Neck
        {
          OFFSET 0 21.7863 1.0387
          CHANNELS 3 Zrotation Xrotation Yrotation
          JOINT Head
          {
            OFFSET 0 6.5822 0
            CHANNELS 3 Zrotation Xrotation Yrotation
            End Site
            {
              OFFSET 0 15.9326 -5.25436
            }
          }
        }
        JOINT RightShoulder
        {
          OFFSET -3.57307 9.16386 -0.497525
          CHANNELS 3 Zrotation Xrotation Yrotation
          JOINT RightArm
          {
            OFFSET 0 12.0192 0
            CHANNELS 3 Zrotation Xrotation Yrotation
            JOINT RightArmRoll
            {
              OFFSET 0 6.06755 0
              CHANNELS 3 Zrotation Xrotation Yrotation
              JOINT RightForeArm
              {
                OFFSET 0 17.6726 0
                CHANNELS 3 Zrotation Xrotation Yrotation
                JOINT RightForeArmRoll
                {
                  OFFSET 0 6.80872 0
                  CHANNELS 3 Zrotation Xrotation Yrotation
                  JOINT RightHand
                  {
                    OFFSET 0 13.6636 0
                    CHANNELS 3 Zrotation Xrotation Yrotation
                    End Site
                    {
                      OFFSET 0 0 0
                    }
                  }
                }
              }
            }
          }
        }
        JOINT LeftShoulder
        {
          OFFSET 3.57307 9.16386 -0.497525
          CHANNELS 3 Zrotation Xrotation Yrotation
          JOINT LeftArm
          {
            OFFSET 0 12.0192 0
            CHANNELS 3 Zrotation Xrotation Yrotation
            JOINT LeftArmRoll
            {
              OFFSET 0 6.06755 0
              CHANNELS 3 Zrotation Xrotation Yrotation
              JOINT LeftForeArm
              {
                OFFSET 0 17.6726 0
                CHANNELS 3 Zrotation Xrotation Yrotation
                JOINT LeftForeArmRoll
                {
                  OFFSET 0 6.80872 0
                  CHANNELS 3 Zrotation Xrotation Yrotation
                  JOINT LeftHand
                  {
                    OFFSET 0 13.6636 0
                    CHANNELS 3 Zrotation Xrotation Yrotation
                    End Site
                    {
                      OFFSET 0 0 0
                    }
                  }
                }
              }
            }
          }
        }
      }
    }
  }
  JOINT RightUpLeg
  {
    OFFSET -5.27774 -0.967797 -0.811858
    CHANNELS 3 Zrotation Xrotation Yrotation
    JOINT RightUpLegRoll
    {
      OFFSET 0 16.0214 0
      CHANNELS 3 Zrotation Xrotation Yrotation
      JOINT RightLeg
      {
        OFFSET 0 -19.8401 0
        CHANNELS 3 Zrotation Xrotation Yrotation
        JOINT RightLegRoll
        {
          OFFSET 0 19.905 0
          CHANNELS 3 Zrotation Xrotation Yrotation
          JOINT RightFoot
          {
            OFFSET 0 16.5675 0
            CHANNELS 3 Zrotation Xrotation Yrotation
            JOINT RightToeBase
            {
              OFFSET 0 13.8496 0
              CHANNELS 3 Zrotation Xrotation Yrotation
              End Site
              {
                OFFSET 0.00587034 6.70728 -0.773117
              }
            }
          }
        }
      }
    }
  }
  JOINT LeftUpLeg
  {
    OFFSET 5.27774 -0.967797 -0.811858
    CHANNELS 3 Zrotation Xrotation Yrotation
    JOINT LeftUpLegRoll
    {
      OFFSET 0 16.0215 0
      CHANNELS 3 Zrotation Xrotation Yrotation
      JOINT LeftLeg
      {
        OFFSET 0 19.84 0
        CHANNELS 3 Zrotation Xrotation Yrotation
        JOINT LeftLegRoll
        {
          OFFSET 0 20.089 0
          CHANNELS 3 Zrotation Xrotation Yrotation
          JOINT LeftFoot
          {
            OFFSET 0 16.3835 0
            CHANNELS 3 Zrotation Xrotation Yrotation
            JOINT LeftToeBase
            {
              OFFSET 0 13.8496 0
              CHANNELS 3 Zrotation Xrotation Yrotation
              End Site
              {
                OFFSET -0.0263083 6.70728 -0.773117
              }
            }
          }
        }
      }
    }
  }
}
MOTION
Frames: 5
Frame Time: 0.00208333
53.5265 84.2306 4.25588 0.143217 -2.50089 0.902727 -0.299544 -2.02515 0.0352409 -0.599909 -0.046646 0.0984193 -0.601336 1.59838 0.109027 -25.0512 18.6995 -9.7348 31.1822 -5.06895 -15.6793 12.5774 -11.3889 -8.02543 55.952 11.3012 45.1387 -4.736e-006 1.86039e-006 -4.69678e-007 -7.27784 69.1944 2.43134 -8.87158e-006 2.68792e-006 -3 8.03008 -4.95138 0.697639 -88.0236 -5.71263 4.93781 -88.4711 18.5982 -8.65581 -1.4468e-005 2.64657e-006 -2.23752e-007 3.64041 -0.028094 1.99256 4.40734e-006 -2.68417e-006 3.01161 -8.03009 -4.95138 -0.697634 179.599 2.87137 2.64704 180 7.01557e-015 178.967 177.248 9.90046 179.92 1.8465e-006 -3.04527e-006 0.174796 -20.129 69.7846 21.1333 8.13649 25.2327 -3.48773 179.975 3.42245 0.435469 4.54188e-006 -4.6773e-006 -1.0276 -2.72832 -10.3162 0.0273823 1.48736e-006 -4.48412e-006 -0.151607 19.6247 69.2575 -20.6361 -8.13649 25.2327 3.48774 
53.5458 84.2297 4.25505 0.132401 -2.5139 0.851356 -0.296322 -2.01509 0.0349147 -0.591891 -0.0265288 0.0976971 -0.593312 1.6185 0.108084 -25.0464 18.6206 -9.7663 31.1664 -5.01068 -15.7116 12.8154 -11.4007 -8.0362 56.2307 10.8589 45.0036 -4.736e-006 1.86039e-006 -4.69678e-007 -7.21463 68.9259 2.36577 -8.87158e-006 2.68792e-006 -3 8.03008 -4.95138 0.697639 -87.9495 -5.72473 4.93841 -88.5972 18.6026 -8.55075 -1.4468e-005 2.64657e-006 -2.23752e-007 3.64044 -0.0280847 1.99256 4.40734e-006 -2.68417e-006 3.01161 -8.03009 -4.95138 -0.697634 179.595 2.86936 2.65182 180 7.01557e-015 178.967 177.244 9.91356 179.921 1.8465e-006 -3.04527e-006 0.174823 -20.1308 69.7866 21.1355 8.13649 25.2327 -3.48773 179.972 3.40285 0.436371 4.54188e-006 -4.6773e-006 -1.02772 -2.72669 -10.3187 0.026781 1.48736e-006 -4.48412e-006 -0.15167 19.6303 69.2645 -20.6424 -8.13649 25.2327 3.48774 
53.555 84.229 4.26308 0.12168 -2.52653 0.80067 -0.293189 -2.00502 0.0346001 -0.583976 -0.00644275 0.0970173 -0.58539 1.63858 0.107173 -25.0421 18.5411 -9.7983 31.1504 -4.95202 -15.7447 13.0557 -11.4109 -8.04405 56.5076 10.4168 44.8696 -4.736e-006 1.86039e-006 -4.69678e-007 -7.15137 68.6501 2.30009 -8.87158e-006 2.68792e-006 -3 8.03008 -4.95138 0.697639 -87.8749 -5.73736 4.93917 -88.7239 18.6087 -8.44465 -1.4468e-005 2.64657e-006 -2.23752e-007 3.64046 -0.0280752 1.99256 4.40734e-006 -2.68417e-006 3.01161 -8.03009 -4.95138 -0.697634 179.59 2.86868 2.65662 180 7.01557e-015 178.967 177.241 9.92809 179.921 1.8465e-006 -3.04527e-006 0.17484 -20.1331 69.7891 21.1382 8.13649 25.2327 -3.48773 179.969 3.38328 0.437326 4.54188e-006 -4.6773e-006 -1.02784 -2.72506 -10.3211 0.0261953 1.48736e-006 -4.48412e-006 -0.151735 19.6358 69.2714 -20.6487 -8.13649 25.2327 3.48774 
53.5645 84.2336 4.25853 0.110594 -2.53886 0.750576 -0.290042 -1.99496 0.0343092 -0.575993 0.0135865 0.0963885 -0.577401 1.65861 0.106304 -25.0382 18.4618 -9.83062 31.1343 -4.89369 -15.7782 13.2985 -11.4199 -8.04973 56.7827 9.97644 44.7363 -4.736e-006 1.86039e-006 -4.69678e-007 -7.08823 68.3672 2.23448 -8.87158e-006 2.68792e-006 -3 8.03008 -4.95138 0.697639 -87.7998 -5.75038 4.94004 -88.8513 18.6163 -8.33764 -1.4468e-005 2.64657e-006 -2.23752e-007 3.64048 -0.0280655 1.99256 4.40734e-006 -2.68417e-006 3.01161 -8.03009 -4.95138 -0.697634 179.586 2.86875 2.66105 180 7.01557e-015 178.967 177.238 9.94312 179.922 1.8465e-006 -3.04527e-006 0.174834 -20.1354 69.7917 21.141 8.13649 25.2327 -3.48773 179.967 3.36399 0.437817 4.54188e-006 -4.6773e-006 -1.02796 -2.72363 -10.3239 0.0256187 1.48736e-006 -4.48412e-006 -0.151813 19.6415 69.2783 -20.655 -8.13649 25.2327 3.48774 
53.5725 84.235 4.25848 0.0986829 -2.55096 0.700979 -0.286772 -1.98492 0.0340541 -0.567775 0.0335333 0.0958191 -0.569178 1.67856 0.105487 -25.0345 18.3834 -9.86308 31.1181 -4.83637 -15.8118 13.5439 -11.4283 -8.05403 57.0558 9.53927 44.6036 -4.736e-006 1.86039e-006 -4.69678e-007 -7.02536 68.078 2.16908 -8.87158e-006 2.68792e-006 -3 8.03008 -4.95138 0.697639 -87.7241 -5.76366 4.94098 -88.9792 18.625 -8.22983 -1.4468e-005 2.64657e-006 -2.23752e-007 3.6405 -0.0280557 1.99256 4.40734e-006 -2.68417e-006 3.01161 -8.03009 -4.95138 -0.697634 179.584 2.86898 2.66468 180 7.01557e-015 178.966 177.235 9.95775 179.923 1.8465e-006 -3.04527e-006 0.174792 -20.1376 69.794 21.1436 8.13649 25.2327 -3.48773 179.966 3.34527 0.437325 4.54188e-006 -4.6773e-006 -1.0281 -2.72254 -10.3275 0.0250445 1.48736e-006 -4.48412e-006 -0.151913 19.6474 69.2856 -20.6616 -8.13649 25.2327 3.48774 
